<svg xmlns="http://www.w3.org/2000/svg" width="512" height="512" viewBox="0 0 512 512" version="1.1">
	<path d="M 226.258 12.576 C 158.118 20.831, 94.990 58.887, 55.526 115.500 C 38.104 140.491, 26.560 165.769, 18.989 195.500 C 10.092 230.438, 9.074 269.050, 16.116 304.500 C 27.159 360.089, 57.760 410.631, 102.324 446.885 C 128.402 468.099, 166.156 486.874, 198 494.463 C 223.870 500.629, 260.160 502.741, 286 499.586 C 358.424 490.742, 422.159 451.117, 462.266 390 C 470.218 377.882, 482.315 353.782, 487.364 340 C 506.140 288.743, 506.678 228.696, 488.828 176.500 C 483.361 160.514, 472.921 138.600, 463.952 124.287 C 462.643 122.198, 463.044 121.584, 471.146 113.287 C 483.307 100.834, 487 92.498, 487 77.500 C 487 48.744, 464.260 25.856, 435.500 25.662 C 420.362 25.561, 411.422 29.544, 398.401 42.192 L 390.302 50.060 383.401 45.864 C 362.948 33.428, 334.130 21.944, 309.934 16.586 C 285.245 11.118, 251.601 9.506, 226.258 12.576" stroke="none" fill="black" fill-rule="evenodd"/>
</svg>